<svg xmlns="http://www.w3.org/2000/svg" width="18" height="18" viewBox="0 0 18 18"><path fill="#ff6076" fill-rule="evenodd" d="M10.94 6.793l1.134 3.856.022.056c.06.127.19.211.333.213l2.32.023c-1.181 1.53-3.03 3.162-5.749 4.809-2.718-1.646-4.566-3.278-5.748-4.807l2.96-.025.07-.007a.375.375 0 00.23-.148L7.65 9.197l1.317 3.68.03.066c.165.284.619.23.69-.117l1.252-6.033zM1.5 6.547c0-5.01 6.257-5.502 7.5-2.19 1.25-3.332 7.5-2.791 7.5 2.19 0 1.083-.36 2.32-1.222 3.65l-2.563-.026-1.478-5.027-.026-.065c-.15-.305-.627-.263-.701.095l-1.286 6.193-1.106-3.09-.028-.06a.375.375 0 00-.628-.034L6.016 10.17l-3.293.03C1.86 8.867 1.5 7.628 1.5 6.546z"/></svg>