<svg width="372" height="93" viewBox="0 0 372 93" xmlns="http://www.w3.org/2000/svg"><g fill="none" fill-rule="evenodd" opacity=".25"><rect fill="#D0DDE7" width="372" height="93" rx="7"/><rect fill="#FFF" width="372" height="84" rx="7"/><path d="M55.088 66.992V37.904H48.88c0 1.696-1.984 3.264-3.776 3.264v4.8h3.264v21.024h6.72zm2.56-6.336c0 4.544 3.744 6.976 8.256 6.976 4.512 0 8.256-2.432 8.256-6.976V44.24c0-4.544-3.744-6.976-8.256-6.976-4.512 0-8.256 2.432-8.256 6.976v16.416zm6.4-16.416c0-1.024.832-1.856 1.856-1.856s1.856.832 1.856 1.856v16.416a1.857 1.857 0 0 1-1.856 1.856 1.857 1.857 0 0 1-1.856-1.856V44.24zm20.064-6.656L76.4 67.312h6.112l7.712-29.728h-6.112zm8.352 21.344v1.728c0 4.544 3.744 6.976 8.256 6.976 4.512 0 8.576-2.432 8.576-6.976V44.24c0-4.544-4.064-6.976-8.576-6.976-4.512 0-8.576 2.432-8.576 6.976v5.408c0 4.576 2.4 6.976 6.976 6.976 1.12 0 2.304-.256 3.456-.672v5.024a1.857 1.857 0 0 1-1.856 1.856 1.857 1.857 0 0 1-1.856-1.856v-2.048h-6.4zm8.256-7.104a1.857 1.857 0 0 1-1.856-1.856V43.92c0-1.024.832-1.856 1.856-1.856s1.856.832 1.856 1.856v6.208c-.096.992-.864 1.696-1.856 1.696zm13.376-9.056v19.264c0 5.792 4.064 6.336 8.8 6.336v-4.8c-1.632 0-2.72-.48-2.72-1.92V43.152c0-1.44 1.088-1.92 2.72-1.92v-4.8l-.717.005c-4.422.064-8.083.834-8.083 6.331zm11.04 16.608h11.104v8.256h7.232v-8.256h11.104v-5.664h-29.44v5.664zm1.12-7.776c7.04 0 11.136-2.56 13.6-5.536 2.4 2.976 6.656 5.536 13.632 5.536v-5.632c-6.72 0-10.016-4.192-10.016-7.264v-.8h-7.2v.8c0 3.072-3.296 7.264-10.016 7.264V51.6zm39.36-8.832c0-5.792-4.064-6.336-8.8-6.336v4.8c1.632 0 2.72.48 2.72 1.92v18.496c0 1.44-1.088 1.92-2.72 1.92v4.8l.717-.005c4.422-.064 8.083-.834 8.083-6.331V42.768zm15.36 1.376h11.136v4.864h-11.136v17.344l20.48-1.632v-5.76l-13.44 1.056v-5.568h11.04V38.544h-18.08v5.6zm21.248 23.168h7.2V37.584h-7.2v29.728zm10.112-.48h29.44v-6.08h-29.44v6.08zm.96-22.848h19.808L231.6 59.952h7.232l1.984-21.888h-27.52v5.92zm40.96 22.368c4.096-2.048 7.552-4.768 9.856-9.088 2.304 4.32 5.792 7.04 9.888 9.088V58.8l-.335-.23c-3.277-2.288-6.001-5.55-6.001-14.618v-5.728h-7.072v5.728c0 9.376-2.912 12.544-6.336 14.848v7.552zm21.568.96h7.2V37.584h-7.2v29.728zm10.752-23.84h6.016c-.224 3.712-2.72 5.312-6.336 5.568v5.536c4.128-.096 7.488-1.472 9.536-4.384 1.984 2.912 5.344 4.288 9.536 4.384V49.04c-3.584-.256-6.208-1.824-6.368-5.568h6.048v-5.408h-18.432v5.408zm1.024 17.984h19.136v6.176h7.36V56.176H287.6v5.28zm19.456-6.08h7.04v-6.432h3.328v-5.632h-3.328v-5.728h-7.04v17.792zm11.52-5.312l.32 8.96h6.08l.32-8.96v-12.48h-6.72v12.48zm.32 17.248v-6.016h6.08v6.016h-6.08zM135.16 14.879c1.496 0 2.737.385 3.723 1.156.986.77 1.638 1.819 1.955 3.145h-2.516a3.292 3.292 0 0 0-1.215-1.53c-.55-.374-1.21-.561-1.981-.561-.635 0-1.207.159-1.717.476-.51.317-.907.77-1.19 1.36-.283.59-.425 1.28-.425 2.074 0 .782.142 1.468.425 2.057.283.59.68 1.043 1.19 1.36.51.317 1.082.476 1.717.476.77 0 1.43-.187 1.98-.561.55-.374.955-.884 1.216-1.53h2.516c-.317 1.326-.969 2.374-1.955 3.145-.986.77-2.227 1.156-3.723 1.156-1.145 0-2.156-.258-3.035-.774a5.267 5.267 0 0 1-2.04-2.167c-.481-.93-.722-1.983-.722-3.162 0-1.19.24-2.25.722-3.179a5.284 5.284 0 0 1 2.032-2.168c.873-.515 1.887-.773 3.043-.773zm11.832 2.584c.918 0 1.742.193 2.474.578a4.23 4.23 0 0 1 1.725 1.674c.42.732.629 1.59.629 2.576s-.21 1.842-.629 2.567a4.303 4.303 0 0 1-1.726 1.674c-.73.392-1.555.587-2.473.587-.918 0-1.742-.195-2.474-.587a4.303 4.303 0 0 1-1.725-1.674c-.42-.725-.629-1.581-.629-2.567 0-.986.21-1.844.629-2.576a4.23 4.23 0 0 1 1.725-1.674c.732-.385 1.556-.578 2.474-.578zm0 2.074c-.669 0-1.235.235-1.7.706-.465.47-.697 1.153-.697 2.048s.232 1.578.697 2.049c.465.47 1.031.705 1.7.705s1.235-.235 1.7-.706c.465-.47.697-1.153.697-2.048s-.232-1.578-.697-2.049a2.299 2.299 0 0 0-1.7-.705zm18.513-2.091c1.145 0 2.048.354 2.712 1.063.663.708.994 1.714.994 3.017V27h-2.38v-5.202c0-.725-.184-1.283-.552-1.674-.369-.392-.876-.587-1.522-.587-.669 0-1.201.21-1.598.629-.397.42-.595 1.031-.595 1.836V27h-2.38v-5.202c0-.725-.184-1.283-.553-1.674-.368-.392-.875-.587-1.521-.587-.669 0-1.201.21-1.598.629-.397.42-.595 1.031-.595 1.836V27h-2.397v-9.418h2.397v1.785a2.919 2.919 0 0 1 1.181-1.42c.539-.334 1.165-.501 1.879-.501.76 0 1.42.181 1.98.544.562.363.984.884 1.267 1.564a3.556 3.556 0 0 1 3.281-2.108zm5.542-2.567c0-.385.136-.7.408-.944.272-.243.629-.365 1.071-.365.442 0 .799.122 1.071.365.272.244.408.559.408.944 0 .374-.136.683-.408.927-.272.243-.629.365-1.071.365-.442 0-.799-.122-1.071-.365a1.19 1.19 0 0 1-.408-.927zm2.669 2.703V27h-2.397v-9.418h2.397zm7.786-.136c1.088 0 1.955.357 2.601 1.071.646.714.969 1.717.969 3.009V27h-2.38v-5.202c0-.748-.193-1.329-.578-1.742-.385-.414-.912-.621-1.581-.621-.68 0-1.224.221-1.632.663-.408.442-.612 1.077-.612 1.904V27h-2.397v-9.418h2.397v1.887a3 3 0 0 1 1.233-1.488c.572-.357 1.232-.535 1.98-.535zm9.367.017c.793 0 1.473.187 2.04.561.567.374.969.878 1.207 1.513v-1.955h2.38v9.452c0 .873-.173 1.657-.519 2.355a3.823 3.823 0 0 1-1.547 1.64c-.685.397-1.515.595-2.49.595-1.36 0-2.46-.323-3.298-.969-.839-.646-1.349-1.524-1.53-2.635h2.363c.136.476.4.847.79 1.114.392.266.893.399 1.505.399.703 0 1.27-.207 1.7-.62.43-.414.646-1.04.646-1.879v-2.006a3.1 3.1 0 0 1-1.207 1.521c-.567.38-1.247.57-2.04.57-.793 0-1.507-.193-2.142-.578-.635-.385-1.13-.943-1.488-1.675-.357-.73-.535-1.589-.535-2.575 0-.986.178-1.844.535-2.576.358-.73.853-1.289 1.488-1.674s1.349-.578 2.142-.578zm.748 2.091c-.748 0-1.349.244-1.802.731-.453.487-.68 1.156-.68 2.006 0 .85.227 1.516.68 1.997.453.482 1.054.723 1.802.723.725 0 1.323-.246 1.794-.74.47-.493.705-1.153.705-1.98 0-.839-.235-1.504-.706-1.997-.47-.494-1.068-.74-1.793-.74zm19.006 4.165a3.25 3.25 0 0 1-.459 1.691c-.306.516-.76.93-1.36 1.241-.6.312-1.332.468-2.193.468-.85 0-1.61-.144-2.278-.433a3.852 3.852 0 0 1-1.607-1.25c-.402-.544-.631-1.179-.688-1.904h2.55c.057.487.252.892.587 1.215.334.324.779.485 1.334.485.499 0 .881-.133 1.148-.4.266-.266.399-.609.399-1.028 0-.374-.108-.683-.323-.926a2.357 2.357 0 0 0-.816-.587 12.285 12.285 0 0 0-.895-.35l-.465-.16c-.748-.25-1.36-.496-1.836-.74a3.394 3.394 0 0 1-1.215-1.062c-.335-.465-.502-1.071-.502-1.819 0-1.031.371-1.844 1.114-2.44.742-.595 1.725-.892 2.949-.892 1.27 0 2.28.306 3.034.918.754.612 1.182 1.428 1.284 2.448h-2.584a1.8 1.8 0 0 0-.544-1.063c-.295-.277-.697-.416-1.207-.416-.442 0-.799.116-1.071.349-.272.232-.408.569-.408 1.011 0 .351.105.643.315.876a2.4 2.4 0 0 0 .799.569c.323.147.762.312 1.317.493.77.272 1.397.527 1.879.765a3.31 3.31 0 0 1 1.232 1.071c.34.476.51 1.1.51 1.87zm6.12-6.256c.918 0 1.742.193 2.474.578a4.23 4.23 0 0 1 1.725 1.674c.42.732.629 1.59.629 2.576s-.21 1.842-.629 2.567a4.303 4.303 0 0 1-1.726 1.674c-.73.392-1.555.587-2.473.587-.918 0-1.742-.195-2.474-.587a4.303 4.303 0 0 1-1.725-1.674c-.42-.725-.629-1.581-.629-2.567 0-.986.21-1.844.629-2.576a4.23 4.23 0 0 1 1.725-1.674c.732-.385 1.556-.578 2.474-.578zm0 2.074c-.669 0-1.235.235-1.7.706-.465.47-.697 1.153-.697 2.048s.232 1.578.697 2.049c.465.47 1.031.705 1.7.705s1.235-.235 1.7-.706c.465-.47.697-1.153.697-2.048s-.232-1.578-.697-2.049a2.299 2.299 0 0 0-1.7-.705zm10.88-2.074c.918 0 1.742.193 2.474.578a4.23 4.23 0 0 1 1.725 1.674c.42.732.629 1.59.629 2.576s-.21 1.842-.629 2.567a4.303 4.303 0 0 1-1.726 1.674c-.73.392-1.555.587-2.473.587-.918 0-1.742-.195-2.474-.587a4.303 4.303 0 0 1-1.725-1.674c-.42-.725-.629-1.581-.629-2.567 0-.986.21-1.844.629-2.576a4.23 4.23 0 0 1 1.725-1.674c.732-.385 1.556-.578 2.474-.578zm0 2.074c-.669 0-1.235.235-1.7.706-.465.47-.697 1.153-.697 2.048s.232 1.578.697 2.049c.465.47 1.031.705 1.7.705s1.235-.235 1.7-.706c.465-.47.697-1.153.697-2.048s-.232-1.578-.697-2.049a2.299 2.299 0 0 0-1.7-.705zm12.138-2.091c1.088 0 1.955.357 2.601 1.071.646.714.969 1.717.969 3.009V27h-2.38v-5.202c0-.748-.193-1.329-.578-1.742-.385-.414-.912-.621-1.581-.621-.68 0-1.224.221-1.632.663-.408.442-.612 1.077-.612 1.904V27h-2.397v-9.418h2.397v1.887a3 3 0 0 1 1.232-1.488c.573-.357 1.233-.535 1.981-.535z" fill="#BFBFBF" fill-rule="nonzero"/></g></svg>