<svg width="372" height="93" viewBox="0 0 372 93" xmlns="http://www.w3.org/2000/svg"><g fill="none" fill-rule="evenodd"><rect fill="#D0DDE7" width="372" height="93" rx="7"/><rect fill="#FFF" width="372" height="84" rx="7"/><path d="M87.12 56.352L97.616 55.2v1.152h6.624v-28h-6.624V35.2h-3.744v-6.848H87.12v28zm20.48.96h7.04V44.48h3.328v-6.112h-3.328V27.584h-7.04v29.728zM93.872 40.608h3.744v9.152l-3.744.384v-9.536zm25.728-7.68h20.192V34.4H119.6v11.328h27.52v-5.056h-20.512v-1.6H146.8V28.064h-27.2v4.864zm-1.12 23.904h29.44v-5.696h-11.104v-4.448h-7.232v4.448H118.48v5.696zm43.584.48l19.104-.832v.832h7.072V45.056h-26.176v12.256zm-1.344-23.04h5.824c0 2.688-2.752 4.096-6.144 4.352v5.216c4.224-.096 7.488-1.12 9.536-3.808 2.048 2.688 5.28 3.712 9.536 3.808v-5.216c-3.392-.256-6.144-1.664-6.144-4.352h5.824v-5.088h-5.728v-2.24h-6.912v2.24h-5.792v5.088zm20.48 9.984h7.04v-5.952h3.328v-5.6h-3.328v-5.12h-7.04v16.672zm-12.032 5.568h12v1.952l-12 .448v-2.4zm23.552-.896c0 4.704 3.84 7.904 8.544 7.904 3.968 0 7.328-2.528 8.288-6.144h4.576v6.624h7.04V27.584h-7.04v6.368h-4.64c-1.024-3.488-4.352-5.888-8.224-5.888-4.704 0-8.544 3.2-8.544 7.904v12.96zm6.432-13.344c0-1.056.896-2.144 2.176-2.144 1.28 0 2.208 1.088 2.208 2.144v13.728c0 1.12-.928 2.112-2.208 2.112-1.28 0-2.176-.992-2.176-2.112V35.584zm10.688 3.808h4.288v5.856h-4.288v-5.856zm14.88 9.856c0 4.704 3.808 7.584 8.704 7.584 4.928 0 8.736-2.88 8.736-7.584v-4.64c0-4.672-3.808-7.552-8.736-7.552-4.896 0-8.704 2.88-8.704 7.552v4.64zm20.48 8.064h7.04V44.48h3.328v-6.112h-3.328V27.584h-7.04v29.728zm-20.8-21.408h18.112v-5.44h-5.536v-3.2h-7.04v3.2H224.4v5.44zm6.752 8.448c0-1.28 1.088-2.24 2.336-2.24 1.248 0 2.368.96 2.368 2.24v5.28c0 1.312-1.12 2.208-2.368 2.208-1.248 0-2.336-.896-2.336-2.208v-5.28zm46.816 12.96h7.2V27.584h-7.2v29.728zM256.56 34.304v-5.76h18.88v4.8c0 13.984-7.936 21.536-19.04 23.328V50.56c7.488-1.888 12.384-7.04 12.384-16.256H256.56z" fill="#001629" fill-rule="nonzero"/></g></svg>