<svg width="372" height="93" viewBox="0 0 372 93" xmlns="http://www.w3.org/2000/svg"><g fill="none" fill-rule="evenodd"><rect fill="#D0DDE7" width="372" height="93" rx="7"/><rect fill="#FFF" width="372" height="84" rx="7"/><path d="M51.344 51.488h19.904v6.144h7.52V46.208H51.344v5.28zM50 44.352h19.648v-4.768h-2.464l.704-5.952h-6.08l-.576 5.952h-2.816l-.544-5.952h-6.08l.704 5.952H50v4.768zm21.568 1.056h7.2V27.584h-7.2v17.824zM50.32 32.832h19.008v-4.768H50.32v4.768zm47.904 1.216h5.504v1.408h-5.504v4.736c-2.304-1.408-3.68-4.032-3.68-8v-4.448h-6.56v4.448c0 5.12-2.4 8.128-5.984 8.928v5.44c4.128-.608 7.2-2.592 9.248-5.408 2.048 2.816 5.152 4.8 9.28 5.408v-5.44a7.284 7.284 0 0 1-2.144-.832h5.344v9.888h7.072V27.584h-7.072v1.632h-5.504v4.832zm13.056 18.016H90.8v-4.128h-7.136v9.376h27.616v-5.248zm33.888 5.248h7.2V27.584h-7.2v29.728zm-21.248-.96l11.36-1.152v1.152H142V28.544h-18.08v27.808zm6.88-22.336h4.48v15.616l-4.48.448V34.016zm25.12.128h11.136v4.864H155.92v17.344l20.48-1.632v-5.76l-13.44 1.056v-5.568H174V28.544h-18.08v5.6zm21.248 23.168h7.2V27.584h-7.2v29.728zm41.6 0h7.2V27.584h-7.2v29.728zm-6.56-10.816c2.464 0 4.704-2.56 4.704-5.728 0-3.2-2.24-5.76-4.704-5.76h-9.984c-2.464 0-4.704 2.56-4.704 5.76 0 3.168 2.24 5.728 4.704 5.728h9.984zM196.88 57.312l21.088-1.28v-5.44l-7.136.448v-3.584H203.6v4.032l-6.72.384v5.44zm.32-23.104h19.968v-4.96h-6.24v-2.304h-7.488v2.304h-6.24v4.96zm6.144 6.56c0-.608.416-1.12.928-1.12h6.016c.512 0 .896.512.896 1.12 0 .512-.384 1.088-.896 1.088h-6.016c-.512 0-.928-.576-.928-1.088zm25.536 2.944h6.4l-.736 4.096h-3.68v9.504h27.584V52.64h-20.992v-3.328h3.296l.992-5.6h8.416v-4.768h-21.28v4.768zm14.24 5.44h7.808v1.664h7.04V27.584h-7.04v17.28h-7.808v4.288zm-13.6-16.192c0 2.72 2.08 4.992 5.056 4.992h8.864c2.944 0 5.088-2.272 5.088-4.992 0-2.784-2.144-5.056-5.088-5.056h-8.864c-2.976 0-5.056 2.272-5.056 5.056zm6.272.064c0-.544.384-.992.8-.992h4.928c.416 0 .832.448.832.992 0 .512-.416.96-.832.96h-4.928c-.416 0-.8-.448-.8-.96zm25.728 1.28h10.784c.032 9.248-3.648 14.336-10.944 16.256v6.112c11.136-1.76 17.6-9.376 17.6-23.328v-4.8h-17.44v5.76zm19.84 23.008h7.04V44.48h3.968v-6.112H288.4V27.584h-7.04v29.728zm20.544-6.848h12.992v1.344l-12.992.448v-1.792zm-7.04 6.848l20.032-.832v.832h7.072V44.384h-7.072v1.536h-12.992v-1.536h-7.04v12.928zm19.904-13.568h7.2v-16.16h-7.2v16.16zm-21.248-7.552c0 4.64 4.064 6.88 9.056 6.88 4.96 0 9.024-2.24 9.024-6.88V34.56c0-4.704-4.064-6.976-9.024-6.976-4.992 0-9.056 2.272-9.056 6.976v1.632zm6.912-2.176c0-1.12.896-2.016 2.144-2.016 1.184 0 2.144.896 2.144 2.016v2.72c0 1.12-.96 1.92-2.144 1.92-1.248 0-2.144-.8-2.144-1.92v-2.72z" fill="#001629" fill-rule="nonzero"/></g></svg>