<svg xmlns="http://www.w3.org/2000/svg" width="24" height="24" viewBox="0 0 24 24"><g fill="none" fill-rule="evenodd"><path d="M0 0h24v24H0z"/><path fill="#000" d="M7 6V2.778C7 1.8 7.8 1 8.778 1h12.444C22.2 1 23 1.8 23 2.778v12.444C23 16.2 22.2 17 21.222 17H18v-2.667h3.222L18 10.037V8a2 2 0 00-2-2H7z"/><path fill="#000" d="M17 21.222V8.778C17 7.8 16.2 7 15.222 7H2.778C1.8 7 1 7.8 1 8.778v12.444C1 22.2 1.8 23 2.778 23h12.444C16.2 23 17 22.2 17 21.222zM5.889 16.333L8.11 19.01 11.222 15l4 5.333H2.778l3.11-4z"/></g></svg>