<svg width="137" height="22" viewBox="0 0 137 22" xmlns="http://www.w3.org/2000/svg" xmlns:xlink="http://www.w3.org/1999/xlink"><defs><path id="ic-linkapay_svg__a" d="M.622.547H13.76V22H.622z"/><path id="ic-linkapay_svg__c" d="M.686.547h15.928V22H.686z"/></defs><g fill="none" fill-rule="evenodd"><path fill="#111" d="M0 .087v21.366h12.61v-2.552H4.089V.087zm14.654 21.366h4.089V.086h-4.089zM35.312.087h4.075v21.366h-4.072C30.81 13.028 28.27 8.96 26.893 6.208v15.245h-4.075V.087h4.07c3.987 7.395 6.69 11.975 7.55 13.739l.877 1.626L35.312.087zm19.47 0h4.348l-5.897 10.557 6.283 10.809h-4.518l-6.07-10.747L54.782.086zm-11.32 21.366h4.047V.087h-4.046v21.366zm24.339-8.225h5.81L70.685 2.86l-2.884 10.37zm8.134 8.225l-1.592-5.673h-7.23l-1.593 5.673h-3.96L67.93.086h5.681l6.284 21.367h-3.96zM110 13.228h5.81L112.886 2.86 110 13.23zm8.135 8.225l-1.592-5.673h-7.23l-1.593 5.673h-3.96L110.13.086h5.68l6.285 21.367h-3.96z"/><g transform="translate(90 -.547)"><mask id="ic-linkapay_svg__b" fill="#fff"><use xlink:href="#ic-linkapay_svg__a"/></mask><path d="M9.522 5.715c0-1.252-.742-1.88-2.225-1.88H4.895v8.27h2.402c1.483 0 2.225-.639 2.225-1.912V5.716zM.622.546h7.134c1.907 0 3.384.418 4.432 1.252 1.048.836 1.571 2.015 1.571 3.54v5.23c0 1.524-.523 2.704-1.57 3.54-1.049.835-2.526 1.252-4.433 1.252h-2.86V22H.621V.546z" fill="#111" mask="url(#ic-linkapay_svg__b)"/></g><g transform="translate(120 -.547)"><mask id="ic-linkapay_svg__d" fill="#fff"><use xlink:href="#ic-linkapay_svg__c"/></mask><path d="M10.787 22H6.514v-6.89L.686.547H5.03l1.625 4.197c.87 2.36 1.554 4.489 2.048 6.389a94.661 94.661 0 012.049-6.42L12.34.547h4.273L10.787 15.11V22z" fill="#111" mask="url(#ic-linkapay_svg__d)"/></g></g></svg>