<svg xmlns="http://www.w3.org/2000/svg" width="24" height="24" viewBox="0 0 24 24"><g fill="#F2F2F2" fill-rule="evenodd" transform="translate(2 2)"><circle cx="13.5" cy="7.5" r="1.5"/><circle cx="6.5" cy="7.5" r="1.5"/><path d="M9.99 0C4.47 0 0 4.48 0 10s4.47 10 9.99 10C15.52 20 20 15.52 20 10S15.52 0 9.99 0zM10 18c-4.42 0-8-3.58-8-8s3.58-8 8-8 8 3.58 8 8-3.58 8-8 8zm0-3.5c.73 0 1.39.19 1.97.53.12-.14.86-.98 1.01-1.14A5.39 5.39 0 0010 13c-1.11 0-2.13.33-2.99.88.97 1.09.01.02 1.01 1.14.59-.33 1.25-.52 1.98-.52z"/></g></svg>