<svg width="20" height="20" viewBox="0 0 20 20" xmlns="http://www.w3.org/2000/svg"><g fill="none" fill-rule="evenodd"><path d="M0 0h20v20H0z"/><path d="M10 14.167c.917 0 1.667-.75 1.667-1.667s-.75-1.667-1.667-1.667-1.667.75-1.667 1.667.75 1.667 1.667 1.667zm5-7.5h-.833V5C14.167 2.7 12.3.833 10 .833A4.168 4.168 0 005.833 5h1.584A2.586 2.586 0 0110 2.417 2.586 2.586 0 0112.583 5v1.667H5c-.917 0-1.667.75-1.667 1.666v8.334c0 .916.75 1.666 1.667 1.666h10c.917 0 1.667-.75 1.667-1.666V8.333c0-.916-.75-1.666-1.667-1.666zm0 10H5V8.333h10v8.334z" fill="currentColor" fill-rule="nonzero"/></g></svg>