<svg width="60" height="60" viewBox="0 0 60 60" xmlns="http://www.w3.org/2000/svg"><g fill="none" fill-rule="evenodd"><path fill="#1A92FF" d="M0 0h60v60H0z"/><path d="M35.865 32.01l3.954-6.039-.681-.609-5.51 4.649a2.991 2.991 0 00-2.84.927 3 3 0 104.474 3.997 2.985 2.985 0 00.603-2.925zM30 16.041V12h6v4.041c-2.159-.364-3.888-.357-6 0zm13.276 3.096l2.111-2.11 2.121 2.12-1.982 1.982a18.078 18.078 0 00-2.25-1.992zM15 25.5h12v3H15v-3zm-3 6h12v3H12v-3zm4.5 6H27v3H16.5v-3zM48 33c0 8.285-6.715 15-15 15-4.185 0-7.95-1.733-10.666-4.5h4.92C28.96 44.447 30.912 45 33 45c6.616 0 12-5.384 12-12 0-6.617-5.384-12-12-12-2.088 0-4.04.553-5.746 1.5h-4.92C25.05 19.732 28.815 18 33 18c8.285 0 15 6.716 15 15z" fill="#FFF" fill-rule="nonzero"/></g></svg>