<svg width="60" height="60" viewBox="0 0 60 60" xmlns="http://www.w3.org/2000/svg"><g fill="none" fill-rule="evenodd"><path fill="#1A92FF" d="M0 0h60v60H0z"/><path d="M44.907 31.632C44.092 39.147 37.73 45 30 45c-4.497 0-8.52-1.99-11.272-5.125l2.075-2.722c2.139 2.742 5.46 4.514 9.197 4.514 5.877 0 10.74-4.374 11.538-10.035h-4.871l6.666-8.75L50 31.632h-5.093zm-26.44-3.299c.811-5.645 5.666-10 11.533-10 3.728 0 7.047 1.765 9.183 4.497l2.074-2.72C38.507 16.983 34.488 15 30 15c-7.72 0-14.072 5.835-14.902 13.333H10l6.667 8.75 6.666-8.75h-4.866z" fill="#FFF" fill-rule="nonzero"/></g></svg>