<svg xmlns="http://www.w3.org/2000/svg" width="631" height="112" viewBox="0 0 631 112"><path d="M557.741 44.747V110H530V2h28.548l43.547 62.177V2H630v108h-26.776zm-99.16-20.075c-17.903 0-29.354 13.634-29.354 31.328 0 17.53 11.45 31.327 29.354 31.327 17.741 0 29.192-13.797 29.192-31.327 0-17.694-11.45-31.328-29.192-31.328m0-24.672C491.483 0 516 23.049 516 56s-24.517 56-57.419 56C425.676 112 401 88.951 401 56s24.676-56 57.581-56M359 110h28V2h-28zm-70.806-83.712H258V2h88v24.288h-30.033V110h-27.773zM146 56c0-33.438 25.122-56 57.331-56C230.064 0 243.913 14.772 251 29.055l-23.834 11.362c-3.544-8.603-12.723-15.745-23.835-15.745-16.75 0-29.15 13.635-29.15 31.327 0 17.693 12.4 31.328 29.15 31.328 11.112 0 20.29-7.142 23.835-15.745L251 82.944C244.075 96.904 230.064 112 203.331 112 171.121 112 146 89.275 146 56m-42 54h28V2h-28zM50.55 25.479H27.958v24.288H50.55c7.477 0 13.004-4.697 13.004-11.983 0-7.448-5.527-12.305-13.004-12.305zM0 2h54.289C78.67 2 92 18.354 92 37.946c0 19.43-13.33 35.46-37.711 35.46H27.958V110H0V2z" fill="#F2F2F2" fill-rule="evenodd"/></svg>