<svg width="120" height="106" viewBox="0 0 120 106" xmlns="http://www.w3.org/2000/svg" xmlns:xlink="http://www.w3.org/1999/xlink"><defs><path id="a" d="M0 105.361h119.647V.031H0z"/></defs><g fill="none" fill-rule="evenodd"><path fill="#1A92FF" d="M10 15h10V5H10z"/><path d="M0 0h128v106H0z"/><g><path fill="#1A92FF" opacity=".7" d="M91.155 88.504h4.107v4.086h-4.107z"/><path fill="#1A92FF" opacity=".4" d="M115.54 105.361h4.107v-4.086h-4.107z"/><path d="M48.123 33.814a.806.806 0 00-1.096.293L39.53 47.03 32.03 34.107a.805.805 0 00-1.095-.293.797.797 0 00-.294 1.09l7.962 13.721-7.962 13.722a.797.797 0 00.694 1.198.802.802 0 00.695-.4l7.499-12.923 7.497 12.924a.803.803 0 001.096.292.797.797 0 00.294-1.09l-7.961-13.723 7.961-13.72a.797.797 0 00-.294-1.09" fill="#E8E8E8"/><mask id="b" fill="#fff"><use xlink:href="#a"/></mask><path d="M89.519 49.653h17.005v-10.03H89.52v10.03zm11.07 21.418H61.443V38.345c0-5.586-2.186-10.838-6.155-14.787a22.237 22.237 0 00-.759-.72c-.038-.034-.078-.066-.117-.1-.22-.196-.443-.39-.67-.576-.058-.047-.118-.09-.176-.138a23.72 23.72 0 00-.64-.496c-.079-.059-.161-.113-.241-.17-.199-.142-.396-.285-.598-.42-.098-.065-.2-.124-.299-.188-.188-.12-.375-.243-.567-.358-.11-.066-.224-.126-.336-.19-.183-.105-.366-.212-.552-.312-.127-.067-.256-.128-.384-.193-.175-.088-.349-.18-.526-.263-.14-.067-.282-.125-.423-.188-.163-.072-.325-.149-.49-.217h34.911c9.466 0 17.166 7.663 17.166 17.081v1.916H73.316a.8.8 0 00-.803.798.8.8 0 00.803.798h14.598v10.83a.8.8 0 00.803.798h11.871V71.07zM21.015 38.345c0-10.65 8.708-19.316 19.412-19.316 5.185 0 10.06 2.009 13.726 5.657 3.667 3.649 5.686 8.5 5.686 13.66V71.07H21.016V38.345zm86.31-.32h-5.133V36.11c0-10.299-8.421-18.677-18.77-18.677H40.427c-11.589 0-21.016 9.38-21.016 20.912V71.87a.8.8 0 00.802.798h42.192v26.66h-14.47a.8.8 0 00-.802.798.8.8 0 00.802.798H78.48a.8.8 0 00.802-.798.8.8 0 00-.802-.798h-14.47v-26.66h37.38a.8.8 0 00.802-.798V51.25h5.133a.8.8 0 00.802-.797V38.824a.8.8 0 00-.802-.798zM88.47 8.419a.802.802 0 001.135 0l2.962-2.948 2.962 2.948a.802.802 0 001.135 0 .796.796 0 000-1.13L93.7 4.343l2.963-2.948a.796.796 0 000-1.128.805.805 0 00-1.135 0l-2.962 2.948L89.605.266a.805.805 0 00-1.135 0 .796.796 0 000 1.128l2.962 2.948L88.47 7.29a.796.796 0 000 1.129M115.52 80.969l2.961-2.948a.796.796 0 000-1.129.805.805 0 00-1.133 0l-2.963 2.948-2.962-2.948a.805.805 0 00-1.134 0 .795.795 0 000 1.13l2.962 2.947-2.962 2.947a.795.795 0 000 1.13.801.801 0 001.134 0l2.962-2.948 2.963 2.947a.801.801 0 001.133 0 .796.796 0 000-1.129l-2.962-2.947zM7.22 91.026c-3.097 0-5.616-2.506-5.616-5.587S4.123 79.85 7.22 79.85c3.097 0 5.615 2.507 5.615 5.588 0 3.08-2.518 5.587-5.615 5.587m0-12.771C3.24 78.255 0 81.478 0 85.439c0 3.96 3.239 7.183 7.22 7.183 3.98 0 7.219-3.222 7.219-7.183s-3.24-7.184-7.22-7.184" fill="#E8E8E8" mask="url(#b)"/></g></g></svg>