<svg xmlns="http://www.w3.org/2000/svg" viewBox="0 0 1440 368"><path fill="#1a92ff" d="M183.7 0h91.9v91.9h-91.9z"/><path d="M183.7 91.9v91.8H91.9V91.9h91.8V0H0v275.6l91.9 91.8v-91.8h183.7V91.9zm183.8 0h92c41.3 0 63.9 27.8 63.9 61.1 0 33-22.6 60.3-63.9 60.3h-44.6v62.2h-47.4V91.9zm85.7 39.9h-38.3v41.3h38.3c12.7 0 22-8 22-20.4 0-12.6-9.4-20.9-22-20.9zm91.4-39.9H592v183.7h-47.4V91.9zm71.1 92c0-56.7 43-95 98-95 45.7 0 69.4 25.1 81.5 49.3l-40.8 19.3c-6.1-14.6-21.8-26.7-40.8-26.7-28.6 0-49.9 23.1-49.9 53.2s21.2 53.2 49.9 53.2c19 0 34.7-12.1 40.8-26.7l40.8 19.3c-11.8 23.7-35.8 49.3-81.5 49.3-55.1-.2-98-38.8-98-95.2zm241-50.7h-51.5V91.9h150.1v41.3H904v142.4h-47.4V133.2zm121.1-41.3h47.4v183.7h-47.4V91.9zm169.4-3c56.2 0 98 39.1 98 95s-41.9 95-98 95c-56.2 0-98.3-39.1-98.3-95s42.1-95 98.3-95zm0 41.8c-30.6 0-50.1 23.1-50.1 53.2 0 29.7 19.6 53.2 50.1 53.2 30.3 0 49.8-23.4 49.8-53.2.1-30.1-19.5-53.2-49.8-53.2zm169.4 33.9v111h-47.4V91.9h48.7l74.4 105.8V91.9h47.6v183.7h-45.7l-77.6-111z"/></svg>