<svg xmlns="http://www.w3.org/2000/svg" width="20" height="20" viewBox="0 0 20 20"><path fill="#FFF" fill-rule="evenodd" d="M12.155 7.548l1.26 4.284.025.063c.067.141.21.234.37.236l2.578.026c-1.313 1.7-3.367 3.513-6.388 5.343-3.02-1.83-5.073-3.642-6.386-5.34l3.288-.03.078-.007a.417.417 0 00.255-.164l1.266-1.74 1.464 4.088.034.074c.182.315.686.255.766-.13l1.39-6.703zM10 4.841c1.389-3.703 8.333-3.102 8.333 2.433 0 1.202-.399 2.577-1.357 4.055l-2.848-.03-1.643-5.584-.028-.073c-.167-.339-.697-.292-.78.106L10.25 12.63 9.02 9.197l-.031-.068a.417.417 0 00-.698-.036l-1.607 2.206-3.659.032c-.959-1.478-1.358-2.853-1.358-4.056 0-5.567 6.952-6.114 8.333-2.433z"/></svg>