<svg width="506" height="80" viewBox="0 0 506 80" xmlns="http://www.w3.org/2000/svg"><path d="M19.547 78V47.256h24.295V33.281H19.547V16.62H51V2H1v76h18.547zm54.838 1l4.738-13.966h28.539L112.4 79H132L104.108 3H82.892L55 79h19.385zM102 51H83l9.554-28L102 51zm54.516 27V31.347L187.484 78H206V2h-18.516v47.083L156.516 2H138v76h18.516zm102.022 0V51.34h11.492c5.999 0 11.094-1.056 15.286-3.17s7.354-5.017 9.486-8.707c2.132-3.691 3.198-7.901 3.198-12.631 0-7.597-2.385-13.634-7.155-18.113C286.075 4.239 279.136 2 270.03 2h0H240v76h18.538zm9.62-41H259V17h9.158C275.386 17 279 20.37 279 27.109c0 6.594-3.614 9.891-10.842 9.891h0zm52.227 42l4.738-13.966h28.539L358.4 79H378L350.108 3h-21.216L301 79h19.385zM349 51h-19l9.554-28L349 51zm64.386 28c5.674 0 10.505-1.004 14.492-3.012 3.987-2.009 7.004-4.698 9.051-8.07 2.047-3.37 3.071-7.064 3.071-11.08 0-4.95-1.113-8.966-3.34-12.05-2.227-3.085-4.885-5.434-7.974-7.047-3.089-1.614-7.075-3.246-11.96-4.895-3.376-1.22-5.962-2.224-7.758-3.013-1.796-.789-3.287-1.81-4.472-3.066-1.185-1.255-1.778-2.78-1.778-4.573 0-2.223.665-3.908 1.994-5.056 1.329-1.148 3.07-1.721 5.226-1.721 2.514 0 4.507.735 5.98 2.205 1.472 1.47 2.388 3.46 2.747 5.971H438.6c-.646-7.029-3.466-12.552-8.458-16.568C425.148 3.008 418.414 1 409.938 1c-5.244 0-9.895.879-13.954 2.636-4.059 1.757-7.237 4.285-9.536 7.585C384.149 14.52 383 18.429 383 22.948c0 4.877 1.095 8.84 3.286 11.888s4.813 5.343 7.866 6.885c3.053 1.542 6.986 3.138 11.799 4.788 3.304 1.148 5.89 2.134 7.758 2.959 1.868.824 3.43 1.882 4.687 3.173 1.257 1.291 1.886 2.905 1.886 4.842 0 2.151-.683 3.873-2.048 5.164-1.364 1.29-3.232 1.936-5.603 1.936-2.73 0-4.974-.824-6.734-2.474-1.76-1.65-2.784-3.909-3.07-6.778h0-19.611c.502 7.46 3.52 13.269 9.05 17.429 5.532 4.16 12.571 6.24 21.12 6.24zm65 0c5.674 0 10.505-1.004 14.492-3.012 3.987-2.009 7.004-4.698 9.051-8.07 2.047-3.37 3.071-7.064 3.071-11.08 0-4.95-1.113-8.966-3.34-12.05-2.227-3.085-4.885-5.434-7.974-7.047-3.089-1.614-7.075-3.246-11.96-4.895-3.376-1.22-5.962-2.224-7.758-3.013-1.796-.789-3.287-1.81-4.472-3.066-1.185-1.255-1.778-2.78-1.778-4.573 0-2.223.665-3.908 1.994-5.056 1.329-1.148 3.07-1.721 5.226-1.721 2.514 0 4.507.735 5.98 2.205 1.472 1.47 2.388 3.46 2.747 5.971H503.6c-.646-7.029-3.466-12.552-8.458-16.568C490.148 3.008 483.414 1 474.938 1c-5.244 0-9.895.879-13.954 2.636-4.059 1.757-7.237 4.285-9.536 7.585C449.149 14.52 448 18.429 448 22.948c0 4.877 1.095 8.84 3.286 11.888s4.813 5.343 7.866 6.885c3.053 1.542 6.986 3.138 11.799 4.788 3.304 1.148 5.89 2.134 7.758 2.959 1.868.824 3.43 1.882 4.687 3.173 1.257 1.291 1.886 2.905 1.886 4.842 0 2.151-.683 3.873-2.048 5.164-1.364 1.29-3.232 1.936-5.603 1.936-2.73 0-4.974-.824-6.734-2.474-1.76-1.65-2.784-3.909-3.07-6.778h0-19.611c.502 7.46 3.52 13.269 9.05 17.429 5.532 4.16 12.571 6.24 21.12 6.24z" stroke="#BFBFBF" fill="none" stroke-dasharray="5,3"/></svg>