<svg xmlns="http://www.w3.org/2000/svg" width="328" height="140" viewBox="0 0 328 140"><g fill="none" fill-rule="evenodd"><path d="M19.526 82.772c.63-.321 1.47-.107 1.785.43 3.78 6.967 10.918 11.362 18.791 11.362 12.178 0 21.732-10.29 21.732-22.618 0-12.326-9.554-22.617-21.732-22.617-7.873 0-15.012 4.395-18.791 11.362-.315.644-1.155.858-1.785.537-.525-.43-.734-1.18-.42-1.823 4.305-7.718 12.283-12.541 20.996-12.541 13.543 0 24.251 11.47 24.251 25.082 0 13.72-10.708 25.19-24.25 25.19-8.714 0-16.692-4.93-20.997-12.649-.314-.536-.105-1.393.42-1.715m58.58-21.544c-.735.214-1.365-.108-1.575-.858a38.15 38.15 0 00-36.429-26.797c-22.255 0-37.687 16.078-37.687 38.373 0 22.296 15.432 38.481 37.687 38.481 16.588 0 31.39-10.719 36.429-26.905.21-.75.84-1.071 1.575-.857.63.215 1.05.965.84 1.608C73.59 101.531 57.633 113 40.101 113 16.377 113 0 95.635 0 71.946 0 48.365 16.377 31 40.102 31c17.532 0 33.49 11.576 38.843 28.62.21.643-.21 1.5-.84 1.608m32.421 21.544c.63-.321 1.47-.107 1.785.43 3.78 6.967 10.918 11.362 18.791 11.362 12.178 0 21.732-10.29 21.732-22.618 0-12.326-9.554-22.617-21.732-22.617-7.873 0-15.012 4.395-18.791 11.362-.315.644-1.155.858-1.785.537-.525-.43-.734-1.18-.42-1.823 4.305-7.718 12.283-12.541 20.996-12.541 13.543 0 24.251 11.47 24.251 25.082 0 13.72-10.708 25.19-24.25 25.19-8.714 0-16.692-4.93-20.997-12.649-.314-.536-.105-1.393.42-1.715m58.58-21.544c-.735.214-1.365-.108-1.575-.858a38.15 38.15 0 00-36.429-26.797c-22.255 0-37.687 16.078-37.687 38.373 0 22.296 15.432 38.481 37.687 38.481 16.588 0 31.39-10.719 36.429-26.905.21-.75.84-1.071 1.575-.857.63.215 1.05.965.84 1.608C164.59 101.531 148.633 113 131.101 113 107.377 113 91 95.635 91 71.946 91 48.365 107.377 31 131.102 31c17.532 0 33.49 11.576 38.843 28.62.21.643-.21 1.5-.84 1.608m40.411 3.802c0-.627.538-1.15 1.183-1.15h4.409c3.01 0 5.161-1.567 6.021-3.76.645-1.568.645-3.448 0-5.12-.86-1.985-2.903-3.657-6.021-3.657h-13.549c-.752 0-1.29-.522-1.29-1.253 0-.627.538-1.15 1.29-1.15h13.549c4.3 0 6.989 2.194 8.279 5.12a8.802 8.802 0 010 7c-1.29 2.925-3.978 5.119-8.28 5.119H210.7c-.645 0-1.183-.523-1.183-1.15M186.183 111c-.645 0-1.183-.523-1.183-1.15V35.255c0-.627.538-1.254 1.183-1.254h30.215c11.29 0 18.602 6.164 21.828 14 2.365 6.06 2.365 13.06 0 19.224-3.226 7.731-10.538 14-21.828 14h-13.656v28.627c0 .626-.537 1.149-1.183 1.149-.752 0-1.29-.523-1.29-1.15V79.867c0-.627.538-1.15 1.29-1.15h14.839c10.107 0 16.56-5.432 19.462-12.537 2.15-5.433 2.15-11.806 0-17.239-2.903-7.104-9.355-12.537-19.462-12.537h-28.925v73.448c0 .626-.645 1.149-1.29 1.149M288.8 38.53c-11.328-3.92-24.351-5.509-32.716 3.602-6.776 7.309-8.47 20.762.636 28.919 10.376 9.004 23.292 7.203 23.928 16.949.317 4.979-4.13 8.474-9.105 8.792-6.67.424-15.247-1.271-22.023-6.25-1.377-.953.105-2.86 1.376-2.013 6.67 4.661 20.329 8.581 25.622 3.708 2.542-2.33 2.118-6.144-.317-8.369-4.976-4.13-28.163-6.885-28.163-26.588 0-16.42 12.81-26.271 29.857-23.94 2.965.423 6.776 1.27 11.753 2.966 1.482.53.635 2.86-.847 2.224m-39.916 65.783c12.175 6.356 29.327 8.369 38.751-1.06 7.2-7.308 8.788-20.55-.212-28.812-10.376-9.746-23.505-7.733-24.14-17.373-.212-4.873 3.6-8.474 8.47-8.686 5.082-.318 9.847.635 15.987 3.178 1.483.635.53 2.86-.952 2.224-3.706-1.483-10.165-3.496-15.14-2.966-3.177.424-6.036 2.33-5.93 5.932 0 1.589.847 3.284 2.33 4.45C272.812 64.8 296 68.72 296 87.893c0 19.173-17.046 27.436-36.316 22.881-3.812-.848-7.835-2.224-12.07-4.343-1.377-.742-.212-2.86 1.27-2.12m76.669-22.926c-.638 0-1.17-.536-1.17-1.178V34.284c0-.642.532-1.284 1.17-1.284.744 0 1.277.642 1.277 1.284v45.923c0 .642-.533 1.178-1.277 1.178m-15.106 20.767c0 4.175 3.298 7.279 7.66 7.279 4.042 0 7.446-3.104 7.446-7.28 0-4.389-3.404-7.493-7.446-7.493-4.362 0-7.66 3.104-7.66 7.494m0-69.152c.638 0 1.17.642 1.17 1.284v45.923c0 .642-.532 1.178-1.17 1.178-.745 0-1.277-.536-1.277-1.178V34.284c0-.642.532-1.284 1.277-1.284M328 102.152c0 5.459-4.574 9.848-9.893 9.848-5.639 0-10.107-4.39-10.107-9.848 0-5.674 4.468-10.063 10.107-10.063 5.319 0 9.893 4.39 9.893 10.063" fill="#BFBFBF"/><g fill="#BFBFBF" fill-rule="nonzero"><path d="M70.99 28.632L85.132 14.49a1.5 1.5 0 00-2.122-2.122L68.868 26.51a1.5 1.5 0 002.122 2.122z"/><path d="M68.868 14.49L83.01 28.632a1.5 1.5 0 002.122-2.122L70.99 12.368a1.5 1.5 0 00-2.122 2.122z"/></g><g fill="#BFBFBF" fill-rule="nonzero"><path d="M295.818 123.803l8.485-8.485a1.5 1.5 0 00-2.121-2.121l-8.485 8.485a1.5 1.5 0 002.121 2.121z"/><path d="M293.697 115.318l8.485 8.485a1.5 1.5 0 002.121-2.121l-8.485-8.485a1.5 1.5 0 00-2.121 2.121z"/></g><g fill="#BFBFBF" fill-rule="nonzero" opacity=".7"><path d="M145.404 138.218l11.314-11.314a1.5 1.5 0 00-2.122-2.122l-11.314 11.314a1.5 1.5 0 002.122 2.122z"/><path d="M143.282 126.904l11.314 11.314a1.5 1.5 0 002.122-2.122l-11.314-11.314a1.5 1.5 0 00-2.122 2.122z"/></g><g fill="#BFBFBF" fill-rule="nonzero" opacity=".7"><path d="M3.818 125.803l8.485-8.485a1.5 1.5 0 00-2.121-2.121l-8.485 8.485a1.5 1.5 0 002.121 2.121z"/><path d="M1.697 117.318l8.485 8.485a1.5 1.5 0 002.121-2.121l-8.485-8.485a1.5 1.5 0 00-2.121 2.121z"/></g><g fill="#BFBFBF" fill-rule="nonzero" opacity=".5"><path d="M240.818 11.803l8.485-8.485a1.5 1.5 0 00-2.121-2.121l-8.485 8.485a1.5 1.5 0 002.121 2.121z"/><path d="M238.697 3.318l8.485 8.485a1.5 1.5 0 002.121-2.121l-8.485-8.485a1.5 1.5 0 00-2.121 2.121z"/></g><g fill="#1A92FF"><path d="M296 29h5v5h-5z" opacity=".3"/><path d="M165 18h8v8h-8z" opacity=".1"/><path d="M8 39h8v8H8z"/><path d="M75 113h4v4h-4z" opacity=".4"/><path d="M221 105h10v10h-10z"/></g></g></svg>