<svg width="371" height="145" viewBox="0 0 371 145" xmlns="http://www.w3.org/2000/svg" xmlns:xlink="http://www.w3.org/1999/xlink"><defs><rect id="b" x="22" y="20" width="313" height="87" rx="39.96"/><filter x="-14.1%" y="-49.4%" width="128.1%" height="201.1%" filterUnits="objectBoundingBox" id="a"><feOffset dy="1" in="SourceAlpha" result="shadowOffsetOuter1"/><feGaussianBlur stdDeviation="14.5" in="shadowOffsetOuter1" result="shadowBlurOuter1"/><feColorMatrix values="0 0 0 0 0.878431373   0 0 0 0 0.278431373   0 0 0 0 0.360784314  0 0 0 1 0" in="shadowBlurOuter1"/></filter></defs><g transform="translate(7 8)" fill="none" fill-rule="evenodd"><use filter="url(#a)" xlink:href="#b" fill="#000"/><rect fill="#F9586E" width="356" height="107" rx="53.5"/><g fill="#FFF"><path d="M267.576 47.503L265 50.17l5 5.333-5 5.334 2.576 2.666 7.424-8zm10 0L275 50.17l5 5.333-5 5.334 2.576 2.666 7.424-8z"/><path d="M83.432 59.576h-5.92v-6.528h5.92v6.528zm0-9.824h-5.92v-7.136H73.32v20.32h14.304v-20.32h-4.192v7.136zm16.352 1.504h-4.288V40.312h-4.224v29.44h4.224V54.776h4.288v-3.52zm17.504 11.808V58.68h8.928v-3.392h-17.088v-3.296h16.416v-9.824h-20.64v3.36h16.48v3.168h-16.448v9.984h8.128v4.384h-11.2v3.456h26.688v-3.456h-11.264zm38.912-9.472c-4.64-1.216-6.688-4.16-6.816-7.072h5.824v-3.328h-5.824v-3.008h-4.224v3.008h-5.76v3.328h5.76c-.096 3.2-2.208 6.304-6.816 7.584l1.952 3.264c3.424-.96 5.76-2.976 7.04-5.568 1.344 2.368 3.616 4.192 6.944 5.056l1.92-3.264zm-9.44 8.48h10.88v4.032h-10.88v-4.032zM142.6 69.4h19.168V58.776H142.6V69.4zm23.072-22.208h-3.904V40.28h-4.224v17.248h4.224v-6.88h3.904v-3.456zm17.824 8.256c.128-.8.192-1.696.192-2.624 0-1.12-.096-2.176-.288-3.136h5.12v5.76h-5.024zm-7.424 4.096c-2.144 0-3.616-2.336-3.616-6.72 0-4.352 1.472-6.688 3.616-6.688 2.176 0 3.648 2.336 3.648 6.688 0 4.384-1.472 6.72-3.648 6.72zm12.448-19.296v6.048h-6.272c-1.312-2.528-3.52-3.968-6.176-3.968-4.384 0-7.616 4.032-7.616 10.496 0 6.496 3.232 10.56 7.616 10.56 2.848.032 5.12-1.632 6.432-4.512h6.016v10.944h4.224V40.248h-4.224zm17.44 20.032c-1.984 0-3.456-1.344-3.456-3.584s1.472-3.616 3.456-3.616 3.424 1.376 3.424 3.584c0 2.272-1.44 3.616-3.424 3.616zm0-10.624c-4.288 0-7.488 2.912-7.488 7.008 0 4.16 3.2 7.072 7.488 7.072 4.256 0 7.424-2.912 7.424-7.072 0-4.096-3.168-7.008-7.424-7.008zm2.08-8.864h-4.224v3.84h-6.528v3.36h17.152v-3.36h-6.4v-3.84zM224.808 51.8h-4.224V40.28h-4.224v29.472h4.224V55.288h4.224V51.8zm3.712-8.48v3.36h9.824c-.608 6.528-3.872 11.136-11.392 14.752l2.208 3.328c10.464-5.056 13.504-12.416 13.504-21.44H228.52zm18.656-3.072h4.256V69.72h-4.256V40.248z" fill-rule="nonzero"/></g></g></svg>