<svg width="372" height="93" viewBox="0 0 372 93" xmlns="http://www.w3.org/2000/svg"><g fill="none" fill-rule="evenodd"><rect fill="#D0DDE7" width="372" height="93" rx="7"/><rect fill="#FFF" width="372" height="84" rx="7"/><path d="M85.072 40.832c-3.648-.512-6.272-2.528-6.368-6.368v-.992h6.048v-5.408H66.32v5.408h6.048v.704c0 4.064-2.656 6.144-6.368 6.656v5.472c4.224-.608 7.456-1.984 9.536-4.8 2.048 2.816 5.28 4.192 9.536 4.8v-5.472zm-2.848-1.44h5.504v10.272H94.8v-22.08h-7.072v7.008h-5.504v4.8zM95.28 52.064H74.8v-4.928h-7.136v10.176H95.28v-5.248zm3.04-16.192h4.416v1.696l-.006.832c-.106 7.18-1.616 9.86-4.73 11.68v6.272c3.488-1.536 5.984-3.584 7.616-6.816 1.632 3.232 4.16 5.28 7.648 6.816V50.08c-3.173-1.854-4.68-4.602-4.735-12.091l-.001-2.117h4.384v-5.408h-4.352v-3.2h-5.856v3.2H98.32v5.408zm12.032 8.736h4.192v12.704h5.6V27.584h-5.6v11.552h-4.192v5.472zm11.04 12.704h5.728V27.584h-5.728v29.728zm19.872 0l19.104-.832v.832h7.072V45.056h-26.176v12.256zm-1.344-23.04h5.824c0 2.688-2.752 4.096-6.144 4.352v5.216c4.224-.096 7.488-1.12 9.536-3.808 2.048 2.688 5.28 3.712 9.536 3.808v-5.216c-3.392-.256-6.144-1.664-6.144-4.352h5.824v-5.088h-5.728v-2.24h-6.912v2.24h-5.792v5.088zm20.48 9.984h7.04v-5.952h3.328v-5.6h-3.328v-5.12h-7.04v16.672zm-12.032 5.568h12v1.952l-12 .448v-2.4zm23.552-15.52h10.784c.032 9.248-3.648 14.336-10.944 16.256v6.112c11.136-1.76 17.6-9.376 17.6-23.328v-4.8h-17.44v5.76zm19.84 23.008h7.04V44.48h3.968v-6.112H198.8V27.584h-7.04v29.728zm12.16-23.84h6.016c-.224 3.712-2.72 5.312-6.336 5.568v5.536c4.128-.096 7.488-1.472 9.536-4.384 1.984 2.912 5.344 4.288 9.536 4.384V39.04c-3.584-.256-6.208-1.824-6.368-5.568h6.048v-5.408H203.92v5.408zm1.024 17.984h19.136v6.176h7.36V46.176h-26.496v5.28zm19.456-6.08h7.04v-6.432h3.328v-5.632h-3.328v-5.728h-7.04v17.792zm21.6.032h27.2V27.904h-7.04v3.552h-13.088v-3.552H246v17.504zm-1.12 11.424h29.44v-5.76h-11.168V46.4h-7.104v4.672H244.88v5.76zm8.192-20.416h13.088v3.712h-13.088v-3.712zm45.696 20.896h7.2V27.584h-7.2v29.728zM277.36 34.304v-5.76h18.88v4.8c0 13.984-7.936 21.536-19.04 23.328V50.56c7.488-1.888 12.384-7.04 12.384-16.256H277.36z" fill="#001629" fill-rule="nonzero"/></g></svg>