<svg xmlns="http://www.w3.org/2000/svg" width="48" height="48" viewBox="0 0 48 48"><path fill="#1A92FF" fill-rule="evenodd" d="M16.889 35.991c-1.92 5.002-7.472 8.15-13.333 8.453.282-5.631 3.42-11.393 8.55-13.333l1.037 1.059c-3.117 3.094-4.187 5.617-4.356 7.03 1.43-.172 4.075-1.234 7.076-4.257l1.026 1.048zm-2.667-23.546c-3.403-.022-7.775 1.994-11.037 5.723A20.217 20.217 0 0 0 0 23.11c2.944-2.546 6.179-3.251 9.852-.893 1.084-3.271 2.527-6.599 4.37-9.773zM24.89 48a20.127 20.127 0 0 0 4.957-3.178c3.745-3.259 5.748-7.642 5.709-11.044a56.984 56.984 0 0 1-9.791 4.385c2.36 3.668 1.675 6.903-.875 9.837zM47.893.087A35.909 35.909 0 0 0 45.383 0C26.794 0 16.59 14.764 13.332 25.863l8.814 8.804C33.652 30.979 48 21.193 48 2.87v-.117a37.069 37.069 0 0 0-.107-2.667zM36 16c-2.21 0-4-1.79-4-4s1.79-4 4-4 4 1.79 4 4-1.79 4-4 4z"/></svg>