<svg xmlns="http://www.w3.org/2000/svg" width="24" height="24" viewBox="0 0 24 24"><path fill="#1A92FF" fill-rule="evenodd" d="M18 10c0 3.309-2.691 6-6 6s-6-2.691-6-6 2.691-6 6-6 6 2.691 6 6zm4 1.737l-1.895 1.168.687 2.095-2.187.46-.079 2.2-2.213-.304-.84 2.04-1.977-1.031L12 20l-1.497-1.634-1.977 1.031-.84-2.04-2.213.304-.079-2.2L3.208 15l.687-2.095L2 11.737 3.374 10 2 8.263l1.895-1.168L3.208 5l2.187-.46.079-2.2 2.213.304.84-2.04 1.977 1.031L12 0l1.497 1.634L15.474.603l.84 2.04 2.213-.304.079 2.2L20.792 5l-.687 2.095L22 8.263 20.626 10 22 11.737zM19 10a7 7 0 1 0-14 0 7 7 0 0 0 14 0zm-1.859 10.276L19.542 24l1.146-2H23l-2.655-4.103a11.51 11.51 0 0 1-3.204 2.379zM3.655 17.897L1 22h2.312l1.146 2 2.401-3.724a11.51 11.51 0 0 1-3.204-2.379z"/></svg>