<svg xmlns="http://www.w3.org/2000/svg" width="48" height="48" viewBox="0 0 48 48"><path fill="#1A92FF" fill-rule="evenodd" d="M4.058 30.154L0 29.02l2.98-2.86-.884-3.8 3.804.87 2.848-2.666 1.148 3.728 3.732 1.134-1.944 2.094a5.04 5.04 0 0 1-1.22-.88l.444-.478-2.208-.67-.678-2.204-1.684 1.576-2.25-.514.524 2.248-1.57 1.69 2.208.67.68 2.204.422-.396c.366.356.748.682 1.14.976l-2.288 2.14-1.146-3.728zM36 0l12 12V0H36zm-.582 5.074L18.812 21.682l-.024.022 7.504 7.504 16.628-16.63-7.502-7.504zM18.382 30.558c1.156-.658 2.676-1.772 3.71-2.798l-1.642-1.652c-.504.5-1.85 1.606-3.048 2.322l.98 2.128zm-6.956-1.24c-.778-.298-1.56-.798-2.32-1.56l-1.648 1.648c1.008 1.008 2.09 1.7 3.214 2.114l.754-2.202zm4.406-.12c-.838.32-1.744.514-2.678.476l-.776 2.262c1.464.184 2.964-.048 4.428-.622l-.974-2.116zM18.928 48L46 20.812l-2.8-2.824L13.276 48h5.652z"/></svg>